# xmcd
#
# Track frame offsets:
#	150
#	16742
#	30885
#	47105
#	60045
#	77334
#	94860
#	114050
#	129503
#	144876
#	160779
#	177430
#	191568
#	207761
#	220695
#	237949
#	255492
#	274562
#	290067
#	305425
#
# Disc length: 4282 seconds
#
# Revision: 3
# Processed by: cddbd v1.5.2PL0 Copyright (c) Steve Scherf et al.
# Submitted via: audiograbber 1.83.01
#
DISCID=f810b814
DTITLE=Luzia Costa - Jesus Vai te Ajudar
DYEAR=1900
DGENRE=
TTITLE0=Quem Planta Colhe
TTITLE1=Jesus é o Oleiro
TTITLE2=Não te Deixo
TTITLE3=Não Pare
TTITLE4=Volta
TTITLE5=Coação Quebrnatado
TTITLE6=Jesus Vai te Ajudar
TTITLE7=O Bom Pastor
TTITLE8=Projeto
TTITLE9=Ele
TTITLE10=Quem Planta Colhe (Play Back)
TTITLE11=Jesus é o Oleiro (Play Back)
TTITLE12=Não te Deixo (Play Back)
TTITLE13=Não Pare (Play Back)
TTITLE14=Volta (Play Back)
TTITLE15=Coação Quebrnatado (Play Back)
TTITLE16=Jesus Vai te Ajudar (Play Back)
TTITLE17=O Bom Pastor (Play Back)
TTITLE18=Projeto (Play Back)
TTITLE19=Ele (Play Back)
EXTD=
EXTT0=
EXTT1=
EXTT2=
EXTT3=
EXTT4=
EXTT5=
EXTT6=
EXTT7=
EXTT8=
EXTT9=
EXTT10=
EXTT11=
EXTT12=
EXTT13=
EXTT14=
EXTT15=
EXTT16=
EXTT17=
EXTT18=
EXTT19=
PLAYORDER=
